<?xml version="1.0" encoding="utf-8"?>
<svg viewBox="164.0643 188.56 323.8787 122.88" xmlns="http://www.w3.org/2000/svg">
  <defs>
    <clipPath id="clip0_208_6">
      <rect width="82.1" height="122.88" fill="white"/>
    </clipPath>
  </defs>
  <g clip-path="url(#clip0_208_6)" transform="matrix(1, 0, 0, 1, 164.06431579589844, 188.55999755859375)">
    <path fill-rule="evenodd" clip-rule="evenodd" d="M19.62 0H69.82L52.32 33.88L82.1 34.4L9.53 122.88L23.49 64.67H0L19.62 0ZM13.92 53.48L28.57 11.78H51.32L39.49 43.53L57.34 43.83L27.31 88.79L36.26 53.48H13.92Z" style=""/>
  </g>
  <path d="M 280.275 272.56 L 272.154 272.56 C 271.943 272.56 271.837 272.443 271.837 272.208 L 271.837 231.146 L 262.486 231.146 C 262.252 231.146 262.135 231.029 262.135 230.794 L 262.205 222.744 C 262.205 222.556 262.299 222.462 262.486 222.462 L 289.837 222.462 C 290.095 222.462 290.224 222.556 290.224 222.744 L 290.224 230.794 C 290.224 231.029 290.13 231.146 289.943 231.146 L 280.486 231.146 L 280.556 272.208 C 280.556 272.443 280.462 272.56 280.275 272.56 Z" style=""/>
  <path d="M 302.177 272.56 L 294.021 272.56 C 293.834 272.56 293.74 272.443 293.74 272.208 L 293.81 222.744 C 293.81 222.556 293.927 222.462 294.162 222.462 L 302.177 222.462 C 302.412 222.462 302.529 222.556 302.529 222.744 L 302.459 242.326 L 313.252 242.326 L 313.252 222.744 C 313.252 222.556 313.345 222.462 313.533 222.462 L 321.548 222.462 C 321.783 222.462 321.9 222.556 321.9 222.744 L 322.041 272.208 C 322.041 272.443 321.923 272.56 321.689 272.56 L 313.603 272.56 C 313.369 272.56 313.252 272.443 313.252 272.208 L 313.252 251.044 L 302.459 251.044 L 302.459 272.208 C 302.459 272.443 302.365 272.56 302.177 272.56 Z" style=""/>
  <path d="M 341.166 273.263 C 338.634 273.263 336.291 272.607 334.134 271.294 C 331.978 269.982 330.255 268.224 328.966 266.021 C 327.701 263.794 327.068 261.369 327.068 258.744 L 327.209 222.744 C 327.209 222.556 327.302 222.462 327.49 222.462 L 335.576 222.462 C 335.763 222.462 335.857 222.556 335.857 222.744 L 335.857 258.744 C 335.857 260.361 336.373 261.744 337.404 262.892 C 338.435 264.017 339.689 264.58 341.166 264.58 C 342.712 264.58 344.002 264.017 345.033 262.892 C 346.064 261.744 346.58 260.361 346.58 258.744 L 346.58 222.744 C 346.58 222.556 346.673 222.462 346.861 222.462 L 354.947 222.462 C 355.134 222.462 355.228 222.556 355.228 222.744 L 355.369 258.744 C 355.369 261.392 354.736 263.83 353.47 266.056 C 352.181 268.259 350.47 270.017 348.337 271.33 C 346.205 272.619 343.814 273.263 341.166 273.263 Z" style=""/>
  <path d="M 368.869 272.56 L 361.662 272.56 C 361.287 272.56 361.099 272.396 361.099 272.068 L 361.029 223.025 C 361.029 222.65 361.216 222.462 361.591 222.462 L 368.095 222.462 L 380.259 250.833 L 379.908 223.025 C 379.908 222.65 380.119 222.462 380.541 222.462 L 387.677 222.462 C 387.959 222.462 388.099 222.65 388.099 223.025 L 388.169 272.138 C 388.169 272.419 388.052 272.56 387.818 272.56 L 381.49 272.56 L 369.009 246.052 L 369.537 271.998 C 369.537 272.373 369.314 272.56 368.869 272.56 Z" style=""/>
  <path d="M 407.681 272.49 L 394.779 272.56 C 394.544 272.56 394.427 272.443 394.427 272.208 L 394.568 222.744 C 394.568 222.556 394.662 222.462 394.849 222.462 L 408.314 222.392 C 410.986 222.322 413.4 222.931 415.556 224.22 C 417.736 225.509 419.47 227.255 420.759 229.458 C 422.072 231.638 422.728 234.052 422.728 236.701 L 422.728 257.373 C 422.728 260.138 422.06 262.669 420.724 264.966 C 419.365 267.24 417.56 269.056 415.31 270.416 C 413.06 271.751 410.517 272.443 407.681 272.49 Z M 408.314 231.005 L 403.287 231.076 L 403.216 263.701 L 407.681 263.701 C 409.462 263.701 410.962 263.08 412.181 261.837 C 413.4 260.595 414.009 259.107 414.009 257.373 L 414.009 236.63 C 414.009 235.107 413.447 233.783 412.322 232.658 C 411.197 231.509 409.861 230.958 408.314 231.005 Z" style=""/>
  <path d="M 451.943 272.56 L 428.669 272.56 C 428.482 272.56 428.388 272.443 428.388 272.208 L 428.459 222.744 C 428.459 222.556 428.552 222.462 428.74 222.462 L 451.873 222.462 C 452.06 222.462 452.154 222.58 452.154 222.814 L 452.154 230.865 C 452.154 231.052 452.06 231.146 451.873 231.146 L 437.107 231.146 L 437.107 242.396 L 451.873 242.396 C 452.06 242.396 452.154 242.49 452.154 242.677 L 452.224 250.833 C 452.224 251.021 452.13 251.115 451.943 251.115 L 437.107 251.115 L 437.107 263.701 L 451.943 263.701 C 452.13 263.701 452.224 263.818 452.224 264.052 L 452.224 272.279 C 452.224 272.466 452.13 272.56 451.943 272.56 Z" style=""/>
  <path d="M 467.06 272.56 L 458.904 272.56 C 458.716 272.56 458.623 272.443 458.623 272.208 L 458.763 222.744 C 458.763 222.556 458.857 222.462 459.044 222.462 L 473.599 222.462 C 476.201 222.462 478.591 223.095 480.771 224.361 C 482.951 225.626 484.685 227.326 485.974 229.458 C 487.287 231.591 487.943 234.005 487.943 236.701 C 487.943 238.458 487.673 240.052 487.134 241.482 C 486.595 242.912 485.962 244.119 485.236 245.103 C 484.533 246.087 483.888 246.814 483.302 247.283 C 485.904 250.166 487.205 253.552 487.205 257.443 L 487.275 272.208 C 487.275 272.443 487.158 272.56 486.923 272.56 L 478.767 272.56 C 478.58 272.56 478.486 272.49 478.486 272.349 L 478.486 257.443 C 478.486 255.708 477.876 254.208 476.658 252.943 C 475.439 251.677 473.939 251.044 472.158 251.044 L 467.412 251.044 L 467.341 272.208 C 467.341 272.443 467.248 272.56 467.06 272.56 Z M 473.599 231.076 L 467.412 231.076 L 467.412 242.396 L 473.599 242.396 C 475.076 242.396 476.388 241.845 477.537 240.744 C 478.709 239.642 479.294 238.294 479.294 236.701 C 479.294 235.177 478.732 233.865 477.607 232.763 C 476.482 231.638 475.146 231.076 473.599 231.076 Z" style=""/>
</svg>